<?xml version="1.0" encoding="UTF-8"?>
<svg id="Layer_1" xmlns="http://www.w3.org/2000/svg" version="1.1" xmlns:xlink="http://www.w3.org/1999/xlink" viewBox="0 0 1080 1080">
  <!-- Generator: Adobe Illustrator 30.2.1, SVG Export Plug-In . SVG Version: 2.1.1 Build 1)  -->
  <defs>
    <style>
      .st0 {
        fill: url(#_Áåçûìÿííûé_ãðàäèåíò_250);
      }

      .st1 {
        fill: #231f20;
      }

      .st2, .st3 {
        fill: #fff;
      }

      .st4 {
        fill: url(#linear-gradient1);
      }

      .st3 {
        display: none;
      }

      .st5 {
        fill: url(#linear-gradient);
      }
    </style>
    <linearGradient id="linear-gradient" x1="148.807" y1="437.319" x2="931.193" y2="437.319" gradientUnits="userSpaceOnUse">
      <stop offset="0" stop-color="#7c461d"/>
      <stop offset=".143" stop-color="#a57029"/>
      <stop offset=".286" stop-color="#f2d379"/>
      <stop offset=".429" stop-color="#e9ae39"/>
      <stop offset=".571" stop-color="#e3a430"/>
      <stop offset=".714" stop-color="#dc9927"/>
      <stop offset=".857" stop-color="#c7832a"/>
      <stop offset="1" stop-color="#82481e"/>
    </linearGradient>
    <linearGradient id="linear-gradient1" x1="-1330.886" y1="250.938" x2="-1158.114" y2="434.508" gradientUnits="userSpaceOnUse">
      <stop offset="0" stop-color="#b47f36"/>
      <stop offset=".5" stop-color="#f1d885"/>
      <stop offset="1" stop-color="#a66b32"/>
    </linearGradient>
    <linearGradient id="_Áåçûìÿííûé_ãðàäèåíò_250" data-name="Áåçûìÿííûé ãðàäèåíò 250" x1="-1558.357" y1="-292.047" x2="-615.5" y2="-292.047" gradientUnits="userSpaceOnUse">
      <stop offset="0" stop-color="#7c461d"/>
      <stop offset=".143" stop-color="#a57029"/>
      <stop offset=".286" stop-color="#f2d379"/>
      <stop offset=".429" stop-color="#e9ae39"/>
      <stop offset=".571" stop-color="#e3a430"/>
      <stop offset=".714" stop-color="#dc9927"/>
      <stop offset=".857" stop-color="#c7832a"/>
      <stop offset="1" stop-color="#82481e"/>
    </linearGradient>
  </defs>
  <rect class="st1" width="1080" height="1080"/>
  <g>
    <path class="st5" d="M767.767,504.738c-9.246-10.278-15.189-22.471-20.957-35.126-10.67,6.105-21.292,9.904-33.303,13.575,7.369,11.946,14.706,21.935,23.953,31.142,31.631,29.674,70.699,26.393,101.661-1.396l-12.849,5.403c-20.744,8.723-43.501,3.08-58.504-13.597ZM919.492,346.238l-45.46,42.881,22.095,3.832c-7.519,19.089-14.147,43.869-29.599,57.665-9.765,8.719-23.249,8.873-32.66-.002-11.265-10.624-15.8-25.574-22.052-40.332-5.771,7.43-11.201,13.851-18.059,20.953,10.128,22.427,27.74,45.594,56.578,45.884-12.107,7.067-26.025,6.04-38.486-.332-13.046-7.346-22.534-19.107-29.1-33.197l-21.118,17.29c7.569,12.465,16.855,23.932,28.908,32.106,29.317,21.047,62.84,7.699,83.712-18.071,8.855-10.934,16.339-22.902,21.517-36.126l16.079-41.061,19.345,8.932-11.701-60.423ZM729.146,393.317l27.918,59.049c8.175-5.936,14.864-11.236,21.509-18.025l-25.666-68.741-23.76,27.718ZM764.167,353.755l26.011,68.908,18.637-22.786-20.064-68.192c-9.452,7.531-17.131,14.442-24.584,22.07ZM580.032,588.96c10.98-13.98,19.25-28.92,25.99-45.59,21.9-54.16,30.8-105.98,49.29-161.25,7.89-23.6,18.69-51.83,37.23-68.19,12.97-11.43,30.3-11.2,43.76-.23,10.84,8.84,18.31,20.85,24.81,33.16l25.46-23.22c-7.83-20.9-15.61-40.6-32.46-54.93-14.75-12.54-34.51-14.66-51.59-5.26-21.75,11.96-33.99,34.32-45.44,54.92-28.01,15.15-44.59,36.55-58.11,64.76l-17.24,35.98c-8.79,18.34-29.84,44.71-51.88,45.21-9.23.22-16.78-4.72-21.42-12.12l-13.39-21.29c-4.03-6.42-11.34-9.57-18.13-9.62-17.46-.11-25.98,20.46-28.09,35.45l-7.24,51.43c-1.95,13.83-3.9,27-6.69,40.62l-17.25-152.32-8.25-74.36c-1.36-12.27-.98-33.8-15.12-32.44-3.83.38-9.07,4.49-9.72,9.79l-10.97,89.7-8.96,74.54c-1.52,12.67-3.22,24.09-5.91,37.22l-7.73-33.84-14.42-62.16c-2.27-9.75-7.4-24.93-18.3-25.8-13.81-1.12-18.89,15.15-21.86,26.35-3.14,11.81-5.75,22.96-9.88,34.5-5.07,14.21-17.17,25.4-33.1,25.45l-96.4.31c-4.98.02-8.36,3.64-8.21,8.18.11,3.67,3.61,7.26,8.19,7.27l93.35.22c20.1.05,37.74-9.52,46.88-27.58,9.87-19.51,10.66-35.39,18.76-57.18,3.12,4.89,4.68,9.05,5.89,14.37l21,92.54c1.33,5.86,3.76,11.13,7.97,15.06,4.84,4.52,11.82,4.68,16.94.24,4.02-3.47,7.07-9.17,7.79-14.78l5.54-43.49,14.36-117.7,11.79,101.98,15.44,140.28c.68,6.27,7.78,9.79,11.79,9.73,4.89-.07,10.96-3.85,11.81-9.26l5.55-35.52,13.51-90.52c5.72,10.9,7.89,21.34,10.97,32.49,7.18,26.03,14.32,51.38,24.77,76.25,5.01,11.93,11.34,22.66,19.49,32.35,24.39,29.03,62.73,14.89,85.66-7.36,29.61-28.75,45.48-70.32,57.67-109.35l17.95-57.43c11.28,16.51,18.9,32.07,26.88,49.37,12.56-3.07,23.43-7.37,34.76-13.33l-23.93-53.73-13.49,19.21c.53-10.14,5.2-18.98,8.76-28.07-5.11-10.11-11.56-18.96-18.93-27.4,1.12-4.57,2.78-9.03,5.27-13.26,11.28,6.88,18.59,16.69,24.48,28.27,7.92-10.54,15.55-19.8,24.85-29.4-5.51-13.23-13.55-38.14-26.26-44.57-12.04-6.1-28.52,15.59-34.07,24.99-9.84,16.64-17.24,33.79-22.54,52.48l-17.73,62.57c-5.73,20.22-10.76,39.57-17.74,59.34-13.31,37.67-40.1,91.41-83.3,100.29,12.34-6.01,22.6-13.46,31.14-24.32ZM520.912,517.01c-9.16-17.32-17.05-33.87-23.87-53.22,15.23,18.06,39.21,23.53,57.76,8.63l12.15-9.74c-2.28,10.13-31.15,82.49-46.04,54.33ZM564.562,544.06c-7.01,3.57-14.94,5.66-22.18-.28,18.14-6.41,31.99-34.72,37.64-51.38l17.04-50.29c9.35-27.6,22.8-65.49,44.2-86.09l-18.68,56.2c-11.71,35.22-28.42,112.8-58.02,131.84Z"/>
    <g>
      <g>
        <path class="st2" d="M387.614,687.449c12.038,12.047,14.254,31.566,4.884,45.643-6.263,9.409-20.431,10.311-28.97,4.253-6.035-4.282-8.116-10.543-9.77-17.575-12.821,10.534-26.875,16.886-42.35,20.946-19.291,5.06-46.46,9.272-65.322,1.835l-3.865,10.203c-.199.524-2.017,1.421-2.558,1.57-.72.198-1.31-2.105-1.097-2.825l3.13-10.568c-4.952-3.314-8.705-7.769-11.007-14.074-9.663,13.942-28.179,19.993-43.632,12.624-9.057-4.319-12.179-13.25-16.065-22.903-5.016,15.466-18.84,24.556-34.486,22.347-5.039-.711-8.321-5.131-8.505-9.984-.85-22.347,17.669-35.087,34.855-45.116-1.136-6.233.119-13.829,7.198-16.697l3.001,12.178c5.588-3.683,9.6-7.939,14.902-13.242.795,8.912-7.243,14.028-13.26,20.064,1.126,9.286,3.66,19.484,6.883,28.511,2.459,6.887,7.887,10.801,14.589,12.666,15.067,4.193,30.753-5.468,37.86-17.545.461-.784,2.145-1.624,2.728-1.748,3.602-.769-3.827,13.24,9.897,19.396,8.815-18.22,24.222-48.508,48.216-48.387,9.451.048,17.747,5.491,23.195,12.738,8.815,11.727,1.127,24.712-6.299,35.347,12.856-2.913,24.498-7.352,35.468-14.251,6.219-3.911,9.538-9.517,12.876-8.677,1.834.461-1.699,14.313,7.716,19.852,6.912,4.066,18.281,2.949,23.714-2.796-.814-17.476-13.711-10.187-3.927-33.784ZM168.059,705.766l-2.828-14.077c-8.102,4.991-14.952,9.454-22.202,15.144-3.462,2.717-10.099,10.847-7.583,14.819,5.184,8.182,35.511-1.459,32.613-15.886ZM314.659,712.122c-.699-6.809-5.001-11.032-10.043-14.668-23.12-16.671-43.932,13.943-52.979,32.184,22.385,6.212,46.81-3.11,63.023-17.516Z"/>
        <path class="st2" d="M730.36,728.753c-1.029,10.265-6.658,18.105-16.077,21.732-7.024,2.706-15.115,4.402-23.086,4.421l-43.893.104-.041-91.484c-.005-10.178-10.944-7.446-11.698-10.481-.223-.897.756-3.574,1.717-3.571l47.902.13c16.217.044,37.701,4.546,39.768,23.369,1.024,9.321-3.198,17.304-11.031,22.101l-7.445,4.559c15.694,2.634,25.462,13.367,23.883,29.12ZM687.691,695.428c10.141-1.68,15.704-9.57,15.562-19.004-.128-8.485-4.469-15.936-12.846-18.227-6.982-1.909-14.157-1.825-21.482-.044l.046,37.716c6.621.233,12.62.57,18.721-.441ZM708.006,726.495c.431-10.927-5.816-19.486-16.541-21.671-7.214-1.47-15.081-1.093-22.561-.254l.079,41.483c7.414,1.657,14.233,2.26,21.078,1.227,10.865-1.64,17.502-9.565,17.945-20.785Z"/>
        <path class="st2" d="M840,721.722c-7.86,22.015-30.252,33.016-52.127,33.11l-40.097.173-.092-91.363c-.01-10.18-10.471-7.163-11.542-10.602-.274-.88.713-3.565,1.906-3.562l43.702.122c21.027.059,46.016,6.218,56.031,26.333,7.122,14.304,7.565,30.815,2.218,45.79ZM813.584,728.315c8.244-16.568,8.229-35.779.574-52.198-7.884-16.91-26.616-22.103-44.569-17.6l-.085,86.668c16.981,7.162,35.534.304,44.08-16.87Z"/>
        <path class="st2" d="M517.607,754.692l-9.871.309-63.856-78.667-.384,78.532-10.176-.051v-89.485c.001-10.134-8.825-9.959-12.441-11.054-.863-.261-.55-2.698-.461-4.638,13.298.174,26.573-2.737,36.231,9.165l50.816,62.618.149-71.8,10.029.155-.038,104.915Z"/>
        <path class="st2" d="M951.651,754.977c-12.307.547-26.993.447-33.888-12.279-3.22-5.944-5.509-11.536-8.235-18.261l-40.767.081-12.797,30.295c-3.359.103-6.662.052-10.912-.25l45.065-104.214c3.482-1.028,7.12-.965,11.19-.442l37.599,89.092c1.95,4.62,5.908,8.3,9.846,10.058l3.498,1.562c.818.365-.018,3.942-.599,4.358ZM906.211,716.395l-16.772-40.029-17.243,40.129,34.015-.1Z"/>
        <path class="st2" d="M623.712,754.908c-10.383-.209-19.194-6.52-23.166-15.551l-6.555-14.904-40.326-.061-12.746,30.233c-3.327.321-6.996.331-10.826.027l44.826-104.792,10.722-.174,37.497,88.719c2.539,6.008,6.959,10.315,13.445,11.629l.31,5.139-13.179-.265ZM590.845,716.364l-16.621-39.809-16.943,39.997,33.564-.188Z"/>
        <path class="st3" d="M180.1,783.717c3.969,1.333,4.911,6.565,5.25,10.068.131,1.354,4.16,1.916,5.317,1.129,1.115-.759,1.671-3.034,2.069-4.964l.526-2.555c.117-.569,2.583-.747,2.679-.174l.455,2.722.831,4.373c.212,1.113,2.9,1.226,3.981.864,1.081-.362,2.065-2.863,2.166-4.092l.271-3.32c.068-.826,2.248-.734,2.975-.392,1.779.838-1.276,7.148,3.174,8.177,1.562.361,3.519-1.794,3.588-3.413l.295-6.987c.348-.292,2.948-.867,3.039-.235l.566,3.934c.297,2.063.16,4.367,1.073,5.314,1.065,1.105,4.989,1.399,6.353.695s1.807-3.953,1.987-5.953l.322-3.579c.069-.768,3.332-.756,3.369.015l.177,3.63c.105,2.159.918,5.051,2.32,6.199,1.235,1.012,5.861-.04,5.884-1.688l.307-22.215c.016-1.142,3.643-1.651,3.804-.803.181,7.459,1.011,17.3-.551,24.98-1.253,6.16-10.925,5.835-14.35,1.297-3.516,5.738-8.772,1.321-12.461,1.914-3.789.61-6.918.733-10.789.197-2.852-.395-7.412,2.532-10.514-.916l-8.36,2.686c-2.278.732-3.627,5.901-5.754,6.912-2.917,1.387-8.214,1.753-10.371.374-.566-.362-1.062-3.691-.389-3.69l3.022.002c3.718.003,7.49-.965,8.779-4.18-3.968-.517-8.078-.887-10.051-3.275-2.169-2.625-1.853-6.8-.192-9.846,1.476-2.707,5.126-4.58,9.206-3.21ZM181.244,790.908c-.421-1.959-3.448-3.809-5.334-3.159-1.399.482-2.864,3.102-2.696,4.726.254,2.44,5.79,3.642,8.476,2.01.474-.288-.011-1.548-.447-3.576Z"/>
        <path class="st2" d="M192.941,682.875c-1.46,1.511,3.71,3.246,5.342,5.204.521.625-.3,2.996-.729,3.622-2.223-.435-6.972-2.661-7.417-4.89-1.279-6.399,3.79-10.676,9.115-12.681l71.598-26.963c.16,3.847-2.476,5.291-5.61,6.449-10.812,3.996-67.673,24.471-72.299,29.259Z"/>
        <path class="st3" d="M131.021,790.909c1.275,4.354-1.525,6.672,1.157,10.854,2.95,4.6,16.152,4.445,17.299-1.727-3.626-.54-7.982-1.106-9.594-3.119-2.144-2.678-1.755-7.056-.392-9.644,1.696-3.222,5.676-4.949,9.761-3.003,3.051,1.454,3.809,6.071,4.664,9.723.443,1.891,6.501,1.714,7.247-.595.773-2.392.176-7.2-.112-9.75.076-.655,2.093-1.523,2.892-1.297,1.685.476,3.502,10.819-.251,15.164-1.816,2.102-6.438,2.053-9.564,2.101-2.612,6.109-7.471,10.517-14.722,10.003-3.947-.28-8.207-1.666-10.036-4.395-2.3-3.431-2.353-8.047-1.305-11.79l.591-2.111c.168-.601,2.189-1.015,2.365-.415ZM149.922,795.09c.141-2.908-.609-5.7-2.75-6.843-1.056-.564-3.962.201-4.66,1.071s-.846,3.698.044,4.409c1.507,1.204,4.475,1.447,7.366,1.362Z"/>
        <polygon class="st2" points="149.597 666.038 136.584 657.31 143.106 645.604 154.845 653.539 160.411 644.66 172.817 653.309 166.626 664.617 154.789 657.295 149.597 666.038"/>
        <path class="st3" d="M354.653,793.235l6.733-5.938-10.241-8.943c-.884-.772.145-3.286,1.347-4.328l11.712,10.234c1.595-3.39.575-14.301,1.907-14.277l2.793.051c1.24.023.893,12.413-1.91,16.885,2.2,2.581,5.461,8.811.867,11.493-3.69,2.154-10.245,1.262-14.95.899-.528-1.719.476-4.959,1.743-6.077ZM367.074,794.966l-2.989-5.307-5.769,5.164,8.758.143Z"/>
        <path class="st2" d="M279.98,668.772l16.604-9.718c-6.462-1.983-11.084-1.504-17.958-.994l4.468-8.457c7.178-2.178,14.262-1.762,21.331,1.63-4.949,12.134-12.22,17.961-24.445,17.539Z"/>
        <path class="st3" d="M258.138,808.902c-1.054-.101-2.831-1.889-2.807-2.774.141-5.16,10.104,1.567,11.982-7.072-3.101.393-6.46.466-8.29-.737-2.412-1.585-3.387-5.266-2.858-8.35.537-3.127,3.185-6.162,5.539-6.771,3.594-.93,7.23,1.026,8.681,4.373,2.471,5.699,1.901,12.04-1.629,17.081-2.231,3.186-5.512,4.738-10.618,4.25ZM266.668,794.743c1.07-.182,1.576-3.546.976-4.646-1.16-2.126-4.207-3.177-5.959-2.173-1.269.727-2.184,3.882-1.632,5.24.567,1.395,3.9,2.04,6.614,1.579Z"/>
        <path class="st3" d="M382.9,808.088c-.615-.324-1.182-3.766-.486-3.797l3.021-.135c4.037-.18,8.015-1.426,8.369-5.154-3.426.518-6.978.45-8.945-1.265-2.092-1.824-2.798-5.646-2.062-8.554.794-3.135,3.643-5.871,6.252-6.209,3.139-.406,6.475,1.557,7.772,4.482,2.421,5.459,1.498,10.909-.775,16.02-2.318,5.213-9.791,6.379-13.144,4.613ZM393.703,794.228c1.146-.726.449-4.56-.526-5.442-.822-.744-2.895-1.586-4.012-1.339-2.555.565-3.454,3.938-2.607,5.707.793,1.657,4.829,2.539,7.145,1.073Z"/>
        <path class="st2" d="M810.992,800.046l-.535-10.319-3.85,6.812c-.264.466-1.89,1.383-2.31,1.045s-1.312-1.307-1.592-1.849l-3.639-7.045-.239,10.124c-.013.536-.159,1.844-.213,2.225-.079.551-1.678.257-2.228.168s-.677-1.382-.678-2.424l-.015-15.752c0-.668.621-2.221.928-2.636.406-.547,2.247.324,2.592,1.008l5.65,11.189,5.287-10.426c.222-.438,1.078-1.43,1.401-1.781.425-.461,2.635.403,2.642,1.022l.179,17.268c.006.565-.501,2.081-.671,2.546-.222.606-2.672-.469-2.709-1.175Z"/>
        <path class="st2" d="M583.194,800.007c-.003,1.15-3.022,1.312-3.465.668l-8.835-12.865-.319,11.809c-.011.399-.5,1.805-.83,1.721l-2.445-.625-.051-19.638c.875-.589,3.453.076,4.036.93l8.068,11.828.511-11.729c.019-.437.956-1.527,1.236-1.818.411-.428,2.139,1.036,2.137,1.652l-.043,18.068Z"/>
        <path class="st2" d="M672.283,790.484c-.22,1.4,1.401,4.432,1.411,5.84.044,6.207-11.01,5.446-14.897,4.746l.012-20.45c3.273-.624,15.122-.595,14.388,4.067l-.913,5.798ZM668.845,784.318c-1.412-1.127-5.908-1.257-6.357.301-.305,1.059-.528,4.171.399,4.255l3.651.331c.865.078,2.962-1.307,3.316-2.114.281-.643-.454-2.332-1.008-2.774ZM662.484,792.706l-.107,4.621c-.02.86,2.884,1.077,4.235,1.075,1.211-.002,3.669-1.763,3.79-2.957.422-4.168-7.9-3.516-7.918-2.739Z"/>
        <polygon class="st2" points="374.243 684.021 360.932 675.21 367.906 663.627 380.601 672.562 374.243 684.021"/>
        <polygon class="st2" points="247.629 693.562 234.824 684.648 241.566 673.411 254.449 682.077 247.629 693.562"/>
        <path class="st2" d="M378.766,652.062l-45.401,17.452c.139-2.383,2.258-5.42,4.857-6.379l44.911-16.576c-.251,2.485-1.835,4.529-4.367,5.502Z"/>
        <path class="st3" d="M283.955,789.749c4.689.228-.948,6.811,2.38,11.149,2.348,3.06,9.582,2.943,12.568.599,1.132-.889,2.053-4.021,1.815-5.553l-1.358-8.76c-.116-.748,2.448-1.912,2.962-1.356,2.523,2.731,3.84,12.555.672,17.435-4.125,6.355-14.575,6.741-19.453,1.031-3.315-3.88-2.756-10.577.414-14.545Z"/>
        <path class="st2" d="M329.87,698.668l14.644-8.562c-6.057-1.671-9.562-1.4-15.026-1.349.431-1.573,2.337-5.609,3.877-6.865,5.635-1.666,12.355-.889,18.117,1.673-4.136,10.841-9.998,14.887-21.611,15.103Z"/>
        <polygon class="st2" points="350.278 757.787 337.879 749.157 344.364 737.976 357.051 746.355 350.278 757.787"/>
        <path class="st2" d="M919.832,798.614c-.046.969-.592,2.494-.975,3.042-.376.539-2.3-1.378-2.295-2.162l.105-17.879c.006-1.068,3.18-.921,3.742-.05l8.601,13.312.166-12.19c.01-.765.825-2.451,1.543-2.414s1.876,1.812,1.869,2.557l-.171,17.539c-.009.973-3.025,1.01-3.528.252l-8.541-12.862-.516,10.856Z"/>
        <path class="st2" d="M783.141,791.045c1.403.022-1.343,5.657-.646,6.694l2.472,3.678-6.467-1.093c-3.374,2.149-7.464,1.846-10.201-1.347-2.436-2.841.119-6.638,2.134-9.781-.638-1.946-1.698-5.84-.229-7.231,1.672-1.583,4.82-1.899,6.843-.915,2.548,1.239,3.304,4.589.982,6.921-1.17,1.174-2.015,3.004-1.19,3.831,1.023,1.027,2.842,2.585,2.975,2.202.745-1.446,1.109-2.125,1.245-2.485.196-.517,1.384-.485,2.08-.474ZM776.321,785.334c0-1.093-.886-1.978-1.979-1.978s-1.979.886-1.979,1.978.886,1.978,1.979,1.978,1.979-.886,1.979-1.978ZM776.891,796.998c-.656-1.581-2.526-4.074-3.758-4.569-1.119-.423-3.139,2.811-2.601,3.885.449.895,1.801,2.168,2.744,2.51s3.992-.919,3.615-1.826Z"/>
        <path class="st2" d="M940.565,785.52c-.482,3.726-2.145,13.429,4.041,13.015,2.383-.159,5.115-3.955,3.322-4.868-2.014-1.026-3.202-1.565-4.219-3.126l8.182-.449c.59,3.654.18,7.243-2.193,9.581-2.245,2.213-6.698,2.528-9.542.85-3.007-1.775-3.643-5.989-3.703-9.585-.084-5.047,1.038-8.858,5.698-10.475,3.576-1.241,8.842,1.178,9.507,5.466-2.16,3.113-2.655-1.225-6.956-2.599-1.013-.324-4.001,1.136-4.137,2.189Z"/>
        <path class="st2" d="M510.6,801.394c-1.831.228-2.333-10.107-7.898-8.893l-.497,6.59c-.062.822-.951,2.363-1.699,2.451s-1.863-1.701-1.856-2.615l.15-18.526c4.591-.084,15.174-1.063,14.619,6.06-.146,1.876-1.412,3.859-3.42,6.072l3.897,8.449-3.296.411ZM506.685,783.489c-2.274.018-4.759.541-4.668,1.596.1,1.157-.321,4.405.746,4.462l4.379.231c1.144.06,2.945-2.24,2.888-3.408-.048-.976-2.169-2.89-3.345-2.881Z"/>
        <path class="st2" d="M489.26,789.33l3.678.042c.707.008,1.098,2.437.405,2.521l-3.308.403c-1.338.163-4.319-.009-4.798.968s-.295,3.41.179,4.39c1.172,2.421,11.103-1.929,10.083,3.68l-13.966.074-.057-20.732,12.035-.428,1.899,3.001-8.683.394c-1.088.049-2.064,2.646-1.859,3.827.186,1.069,2.729,1.841,4.392,1.86Z"/>
        <path class="st2" d="M458.961,798.975c-3.2,3.924-9.176,2.616-13.084,2.175l.057-20.423c4.076-.268,9.357-1.128,12.332,1.486,4.031,3.543,4.124,12.557.695,16.761ZM455.485,784.09c-1.576-.776-5.578-.787-6.19.578l.055,13.499c2.371.444,5.771.427,6.861-.869,2.228-2.649,2.078-11.827-.726-13.208Z"/>
        <path class="st2" d="M846.894,797.277l-1.786-3.573c-.442-.884-3.328-1.227-4.025-.836l-.612,6.001-.303,2.668c-.063.558-2.774-.569-2.776-1.12l-.078-19.589c4.085-.475,8.411-.436,11.875.551,1.579.45,3.278,4.433,2.773,5.918s-1.938,3.565-3.328,5.653l3.824,8.027c-.694.212-3.102.632-3.574-.084-.481-.729-1.313-2.261-1.99-3.616ZM847.758,784.536c-1.386-1.061-6.431-1.698-6.792.006-.226,1.066-.202,3.69-.064,4.54.14.862,5.879,1.402,7.368-.905.432-.669.119-3.157-.512-3.64Z"/>
        <path class="st2" d="M590.892,795.631c.065,1.68,4.054,3.237,5.657,2.701,1.518-.508,3.554-4.484,2.025-4.985-1.461-.479-3.98-.949-4.337-2.956l8.099-.586c1.039,5.134.116,9.09-4.067,11.172-3.23,1.607-9.253.453-10.442-4.371-.856-3.476-.814-7.951.059-11.61.751-3.147,4.489-4.769,7.152-4.881,3.039-.128,6.645,2.307,7.168,5.958.675,4.718-4.049-3.1-7.798-2.805-1.457.114-3.883,2.866-3.828,4.282l.312,8.082Z"/>
        <path class="st2" d="M886.948,791.344c.222,1.827-5.812-.083-8.315,1.901-.892.707-.37,4.688.771,4.744l7.118.349c.734.036,1.786.481,2.1.951.418.626-1.294,2.277-2.098,2.271l-11.365-.086-.225-20.984,14.016.424c-1.157,3.907-3.19,2.396-5.585,2.599l-4.232.359c-1.119.095-1.07,3.502-.443,4.436s3.079.841,4.734.911l2.877.123c.496.021.546,1.15.649,2.002Z"/>
        <path class="st2" d="M865.022,788.633l7.188,12.262c-.525.388-3.443.533-3.895-.208l-5.591-9.154c-2.423,2.158-3.322,4.447-3.37,6.976l-.049,2.569c-.011.589-1.736.56-2.288.341s-.861-1.793-.862-2.571l-.009-15.789c0-.772.602-2.226.891-2.681.392-.617,2.408.925,2.439,1.725.065,1.683.33,5.231.481,7.518l6.64-7.932c.759-.907,3.137-1.13,4.74-.682l-6.316,7.626Z"/>
        <path class="st2" d="M438.676,798.116c-1.043-1.822-6.845-1.871-8.03-.133l-1.916,2.811c-.379.556-1.5.302-2.975.056l6.658-18.92c.22-.626,1.722-1.943,2.294-1.687s1.776,1.399,2.007,2.051l6.443,18.202c-.104.402-2.195,1.614-2.462,1.148l-2.019-3.528ZM437.342,793.821l-2.655-8.237-2.944,8.201,5.599.036Z"/>
        <path class="st2" d="M830.023,798.374c-1.155-1.992-7.437-2.059-8.564-.064l-1.375,2.434c-.329.583-1.625.414-3.091.072l6.464-18.674c.224-.646,1.355-1.678,1.807-1.877.603-.265,2.243,1.003,2.462,1.611l6.872,19.051c-1.342.29-2.653.762-2.924.294l-1.651-2.847ZM828.773,793.867l-3.16-7.619-2.783,7.588,5.943.031Z"/>
        <path class="st2" d="M550.863,801.14c-4.247.951-9.049,1.274-10.528-4.033l7.49,1.382c.89-.021,2.699-.403,3.382-.847.687-.446,1.091-2.622.639-3.304-2.107-3.18-10.014-.222-10.914-7.027-.455-3.435,2.196-6.708,5.959-6.935,3.123-.188,6.466-.314,7.462,3.758l-5.529-.468c-.934-.079-3.156.199-3.762.674-.755.592-1.028,2.367-.537,3.192,1.937,3.259,9.071.381,10.702,6.184.782,2.784-.896,6.647-4.364,7.423Z"/>
        <path class="st2" d="M628.964,793.294c-1.583.031-3.821-.172-3.862.592l-.205,3.849-.16,3.026c-.032.602-2.481.374-3.092-.019l-.229-19.98c3.273-.298,6.068-.4,9.393-.19,3.61.228,5.534,3.939,5.385,6.679-.207,3.782-2.641,5.952-7.227,6.043ZM630.851,783.99c-1.269-.567-5.855-.923-5.85.298l.024,5.394c.005,1.224,3.564.799,5.147.604,1.021-.126,2.603-1.878,2.714-2.911.089-.827-1.216-3.018-2.035-3.384Z"/>
        <path class="st2" d="M705.443,795.745c.287,1.168,3.216,3.268,4.194,2.816,5.92-2.732,1.047-2.915,6.644-3.681.653-.089-.085,2.134-.385,2.794-1.731,3.807-6.213,4.521-9.492,3.302-4.097-1.524-5.146-5.725-5.104-10.161.039-4.095.88-8.057,4.45-9.8,3.286-1.605,8.255-.845,10.117,3.257.206.453.491,1.633.596,2.108.14.631-2.346.137-2.828-.247l-3.255-2.593c-.96-.765-4.513.891-4.885,2.079-.734,2.344-.708,7.454-.052,10.126Z"/>
        <path class="st2" d="M638.907,783.075c-.024-.775,1.34-3.137,1.984-2.813s1.647,1.712,1.64,2.526l-.103,11.165c-.022,2.33,2.194,4.63,4.448,4.652,2.152.021,4.215-2.225,4.203-4.683l-.053-11.084c-.003-.536.58-2.024.822-2.507.326-.65,2.666.986,2.648,1.912l-.256,13.645c-.071,3.763-4.597,5.821-7.37,5.837-2.976.017-7.455-2.164-7.564-5.71l-.4-12.939Z"/>
        <path class="st2" d="M468.848,799.858l-6.307-18.369c-.065-.644,3.268-.85,3.545-.063l4.736,13.463,4.405-12.795c.209-.608,1.045-1.564,1.398-1.877.477-.422,2.338,1.086,2.093,1.821l-5.855,17.554c-.195.585-.925,1.482-1.216,1.883s-2.557-.911-2.799-1.617Z"/>
        <path class="st2" d="M204.726,666.385l-4.353-10.046c-1.805-.613-4.802-1.589-5.658-2.805-.993-1.41,1.561-6.101,3.43-5.072,3.494,1.924,4.811,6.117,6.649,9.939,1.004-3.342,2.549-8.755,4.376-11.709.509-.823,3.937.001,4.166.923.277,1.111.811,4.277-.327,4.193l-3.381-.25c-2.303-.17-2.031,10.258-4.903,14.829Z"/>
        <path class="st2" d="M688.85,798.428c.711.053,1.984.617,2.407.929.561.415-1.507,2.141-2.278,2.126l-11.257-.229-.184-18.298c-.006-.567.501-2.018.669-2.463.223-.588,2.606.314,2.616.964l.255,16.394,7.772.578Z"/>
        <rect class="st3" x="248.062" y="769.869" width="4.019" height="29.563"/>
        <rect class="st3" x="374.54" y="769.869" width="3.976" height="29.759"/>
        <path class="st2" d="M524.815,799.309c-.001.566-1.035,1.981-1.453,2.217-.547.309-1.999-1.134-2.004-1.927l-.099-15.539-4.917-.692c-.44-.062-.615-1.53-.455-1.945.162-.418,1.667-1.154,2.245-1.123l13.002.701c-2.067,3.096-3.527,2.441-6.289,3.139l-.029,15.17Z"/>
        <path class="st2" d="M748.741,798.841c-1.115-10.08,1.197-3.882-5.527-16.718-.217-.414.736-1.951,1.178-1.798s1.736.668,1.957,1.079l4.068,7.573,3.731-6.982c.228-.426,1.394-1.427,1.749-1.7.473-.365,1.991,1.065,1.735,1.604l-4.989,10.469c-.606,1.271-.324,4.949-.488,6.318l-.265,2.217c-.07.584-1.837.715-2.342.414s-.682-1.355-.806-2.475Z"/>
        <path class="st2" d="M735.941,798.769c-.012.605-.083,1.859-.112,2.251-.043.576-1.813.4-2.343.163s-.749-1.444-.761-2.287l-.222-15.249-4.023-.023c-.795-.004-1.238-1.126-1.427-2.881l14.051-.378c-.029,1.534-.003,2.964-.646,3.015l-4.223.333-.294,15.055Z"/>
        <path class="st2" d="M899.611,800.116c-.002.67-1.929,1.298-3.101,1.421l-.332-17.44c-2.563-.463-4.287-.574-6.758-2.418,6.219-1.794,10.632-1.732,16.916.002-2.6,1.787-3.999,1.849-6.667,2.498l-.058,15.937Z"/>
        <path class="st2" d="M215.629,704.797c.578,2.175-.861,6.836-3.358,8.183-2.714,1.463-5.732-1.424-5.949-3.921-.727-8.353,1.437-16.594,6.784-22.926-.924,4.552-7.252,18.684-2.211,21.815.927.576,2.504-.924,4.733-3.151Z"/>
        <rect class="st2" x="559.009" y="780.452" width="3.388" height="20.806"/>
        <rect class="st2" x="720.136" y="780.483" width="3.606" height="20.814" transform="translate(-1.334 1.22) rotate(-.097)"/>
        <rect class="st2" x="908.312" y="780.491" width="3.48" height="20.837" transform="translate(-1.784 2.058) rotate(-.129)"/>
        <path class="st2" d="M536.84,800.309c-.003.394-2.541,1.455-2.65,1.078-.163-.567-.582-1.854-.584-2.564l-.045-16.049c-.002-.775,1.093-2.415,1.795-2.512s1.628,1.708,1.621,2.66l-.137,17.387Z"/>
        <path class="st2" d="M316.802,661.848c.31.999,3.483-.067,4.441-.719-.383,1.912-1.134,4.127-1.961,5.296-.796,1.125-4.62-.068-4.911-1.571-1.293-6.666.837-13.235,4.246-18.231-.517,5.351-3.307,10.414-1.815,15.226Z"/>
        <rect class="st3" x="694.179" y="780.569" width="3.354" height="20.775" transform="translate(-1.465 1.291) rotate(-.106)"/>
        <path class="st3" d="M355.512,806.269l7.037,1.945c-3.281,1.74-6.1,2.317-9.799,2.676l.993-5.94c.171-1.025,1.662-2.944,2.592-2.997,1.22-.07,3.151.592,4.672,1.352l-5.495,2.964Z"/>
        <path class="st2" d="M171.295,744.234l-.417,3.777c-.133,1.206-3.838,2.905-4.585,1.878-3.857-5.299-1.278-13.712,1.91-18.522l-1.85,12.238c-.108.715,1.009,2.68,1.586,2.937s1.4-.642,3.357-2.308Z"/>
        <path class="st3" d="M228.57,777.148c.761.164,2.388-.818,3.064-.76.845.073,1.914,1.313,1.988,2.159.059.677-.775,2.669-1.41,2.427l-3.695-1.402-2.374,1.214c-.775.396-2.699-.649-2.883-1.5s.614-3.152,1.463-2.969l3.847.83Z"/>
        <path class="st3" d="M161.161,804.271l3.609-1.355c.851-.319,1.878,2.184,1.715,3.07-.13.709-1.643,1.947-2.315,1.686l-3.225-1.254-3.152,1.376c-.81.354-1.903-1.572-2.006-2.446s1.608-2.616,2.447-2.273l2.928,1.196Z"/>
        <path class="st2" d="M609.877,797.737c.576,3.767.213,6.25-3.377,7.774l-.144-7.574,3.521-.2Z"/>
        <circle class="st3" cx="142.776" cy="777.344" r="2.424"/>
        <circle class="st3" cx="148.747" cy="777.317" r="2.357"/>
        <circle class="st3" cx="292.817" cy="782.8" r="2.343"/>
      </g>
      <rect class="st2" x="408.852" y="648.336" width="5.075" height="154.828"/>
    </g>
  </g>
  <g>
    <path class="st2" d="M156.613,798.429h-2.149c-.208,2.03-1.019,3.571-2.431,4.621-1.412,1.051-3.356,1.575-5.832,1.575-1.6,0-3.04-.247-4.319-.74-1.28-.494-2.292-1.249-3.036-2.264-.744-1.016-1.116-2.274-1.116-3.776,0-.849.125-1.76.375-2.733h2.942c-.153.682-.229,1.363-.229,2.045,0,1.46.449,2.545,1.346,3.255.897.709,2.243,1.063,4.038,1.063,1.655,0,2.882-.232,3.683-.698.799-.467,1.283-1.249,1.45-2.348h-1.022c-1.642,0-2.994-.261-4.058-.782-1.064-.521-1.84-1.207-2.327-2.056-.487-.848-.73-1.773-.73-2.774,0-1.016.25-1.962.751-2.838.5-.876,1.286-1.586,2.357-2.128,1.071-.543,2.42-.813,4.048-.813h4.152v8.304h2.107v3.088ZM145.514,785.013c-.348-.348-.522-.765-.522-1.252s.174-.903.522-1.252c.347-.348.765-.521,1.251-.521s.904.174,1.252.521c.348.349.522.766.522,1.252s-.174.904-.522,1.252-.765.521-1.252.521-.904-.174-1.251-.521ZM147.204,794.61c.64.487,1.69.73,3.15.73h1.043v-5.153h-1.085c-1.447,0-2.487.247-3.12.74-.633.494-.949,1.109-.949,1.847s.32,1.35.96,1.836ZM149.666,785.013c-.348-.348-.521-.765-.521-1.252s.174-.903.521-1.252c.348-.348.765-.521,1.252-.521s.904.174,1.252.521c.347.349.521.766.521,1.252s-.174.904-.521,1.252c-.348.348-.765.521-1.252.521s-.904-.174-1.252-.521Z"/>
    <path class="st2" d="M159.221,788.414h3.151v10.015h-5.759c-.473,0-.869-.153-1.189-.459-.32-.306-.479-.682-.479-1.127s.153-.807.459-1.085.709-.417,1.21-.417h2.608v-6.927ZM157.427,803.29c-.348-.348-.521-.765-.521-1.252s.174-.904.521-1.252.765-.521,1.252-.521.904.174,1.252.521.521.765.521,1.252-.174.904-.521,1.252-.765.521-1.252.521-.904-.174-1.252-.521ZM161.579,803.29c-.348-.348-.521-.765-.521-1.252s.173-.904.521-1.252c.348-.348.765-.521,1.252-.521s.904.174,1.251.521.522.765.522,1.252-.174.904-.522,1.252-.765.521-1.251.521-.904-.174-1.252-.521Z"/>
    <path class="st2" d="M179.543,798.429h-2.211c-.25,1.697-.897,2.98-1.94,3.85s-2.462,1.304-4.256,1.304c-.876,0-1.815-.091-2.817-.271v-3.046c.904.125,1.69.188,2.358.188.96,0,1.721-.163,2.285-.49.563-.326.949-.838,1.158-1.533h-.876c-1.642,0-2.994-.261-4.058-.782-1.064-.521-1.84-1.207-2.327-2.056-.487-.848-.73-1.773-.73-2.774,0-1.016.25-1.962.751-2.838s1.287-1.586,2.358-2.128c1.071-.543,2.42-.813,4.047-.813h4.152v8.304h2.107v3.088ZM170.134,794.61c.64.487,1.69.73,3.15.73h1.043v-5.153h-1.085c-1.447,0-2.486.247-3.119.74-.633.494-.95,1.109-.95,1.847s.32,1.35.96,1.836Z"/>
    <path class="st2" d="M201.243,795.341v3.088h-6.468c-.932,0-1.704-.143-2.316-.428-.612-.285-1.092-.713-1.439-1.283-.417.543-.911.964-1.481,1.263-.571.299-1.189.448-1.857.448h-8.137c-.487,0-.887-.146-1.2-.438s-.469-.66-.469-1.105.156-.813.469-1.105.713-.438,1.2-.438h2.608v-7.678h3.151v7.678h1.961c1.182,0,1.773-.89,1.773-2.671v-5.007h3.151v5.007c0,.918.177,1.593.532,2.024.355.431.9.646,1.638.646h1.564v-8.366h3.151v8.366h2.17Z"/>
    <path class="st2" d="M210.214,795.341v3.088c-2.211,0-3.707-.612-4.486-1.836-.5.584-1.13,1.036-1.888,1.356-.758.319-1.624.479-2.598.479-.473,0-.869-.153-1.189-.459-.32-.306-.479-.682-.479-1.127s.153-.807.459-1.085.709-.417,1.21-.417c.765,0,1.391-.223,1.878-.668.487-.444.73-1.112.73-2.003v-4.256h3.151v4.256c0,.793.222,1.426.667,1.898.515.516,1.363.772,2.545.772ZM202.098,786.015c-.348-.348-.521-.765-.521-1.252s.174-.904.521-1.252.765-.521,1.252-.521.904.174,1.252.521c.347.348.521.765.521,1.252s-.174.904-.521,1.252c-.348.348-.765.521-1.252.521s-.904-.174-1.252-.521ZM206.25,786.015c-.348-.348-.521-.765-.521-1.252s.174-.904.521-1.252.765-.521,1.252-.521.904.174,1.252.521.521.765.521,1.252-.174.904-.521,1.252-.765.521-1.252.521-.904-.174-1.252-.521Z"/>
    <path class="st2" d="M212.822,783.114h3.151v15.314h-5.759c-.487,0-.887-.146-1.2-.438s-.469-.66-.469-1.105.156-.813.469-1.105.713-.438,1.2-.438h2.608v-12.227Z"/>
    <path class="st2" d="M218.185,783.114h3.15v15.314h-3.15v-15.314Z"/>
    <path class="st2" d="M234.918,787.037v9.785c0,2.212-.536,3.891-1.606,5.039-1.071,1.147-2.636,1.721-4.695,1.721-.89,0-1.836-.091-2.837-.271l.021-3.046c.904.125,1.69.188,2.357.188,1.266,0,2.191-.288,2.775-.865.584-.577.876-1.506.876-2.785v-.063c-.404.543-.89.96-1.46,1.252-.571.292-1.21.438-1.919.438-1.016,0-1.892-.25-2.629-.751-.738-.501-1.297-1.161-1.68-1.982-.383-.82-.574-1.696-.574-2.629,0-1.057.25-2.041.751-2.952s1.29-1.651,2.368-2.222c1.078-.57,2.444-.855,4.1-.855h4.152ZM230.516,794.944c.389-.264.702-.622.939-1.074.236-.452.354-.936.354-1.45v-2.232h-1.085c-1.419,0-2.445.247-3.078.74-.633.494-.949,1.109-.949,1.847,0,.432.104.845.313,1.241s.511.717.908.96.858.365,1.387.365c.417,0,.821-.132,1.21-.396Z"/>
    <path class="st2" d="M244.933,802.862c-1.099-.466-1.982-1.196-2.65-2.19-.667-.995-1.001-2.243-1.001-3.745,0-1.141.215-2.441.647-3.902h2.942c-.348,1.308-.522,2.435-.522,3.381,0,2.726,1.405,4.089,4.215,4.089,1.405,0,2.441-.375,3.109-1.127.667-.751,1.001-1.919,1.001-3.505v-6.405h3.15v6.405c0,2.448-.633,4.343-1.898,5.686-1.266,1.342-3.054,2.014-5.362,2.014-1.322,0-2.532-.233-3.63-.699ZM247.311,789.999c-.348-.347-.521-.765-.521-1.251s.174-.904.521-1.252.765-.521,1.252-.521.904.174,1.252.521c.347.348.521.765.521,1.252s-.174.904-.521,1.251c-.348.349-.765.522-1.252.522s-.904-.174-1.252-.522Z"/>
    <path class="st2" d="M274.978,795.341v3.088c-2.212,0-3.707-.612-4.486-1.836-.501.584-1.13,1.036-1.888,1.356-.758.319-1.625.479-2.598.479h-7.97v-3.088h4.548l-3.109-10.203h3.255l3.109,10.203h.167c.918,0,1.582-.209,1.992-.626s.616-1.099.616-2.045v-9.556h3.15v9.556c0,.793.223,1.426.668,1.898.514.516,1.363.772,2.545.772Z"/>
    <path class="st2" d="M286.766,798.429h-11.789c-.459,0-.852-.149-1.179-.448s-.49-.664-.49-1.096.164-.796.49-1.096c.327-.299.72-.448,1.179-.448h1.439c-.709-.626-1.064-1.509-1.064-2.649,0-1.127.285-2.121.855-2.984.57-.862,1.356-1.533,2.358-2.013,1.001-.48,2.114-.72,3.338-.72.654,0,1.374.083,2.16.25.786.167,1.582.425,2.389.771l-1.085,2.817c-.64-.265-1.255-.463-1.847-.595s-1.109-.198-1.554-.198c-1.001,0-1.83.25-2.483.751-.654.501-.981,1.176-.981,2.023,0,.793.285,1.416.855,1.868s1.433.678,2.587.678h4.82v3.088Z"/>
    <path class="st2" d="M302.706,783.114v15.314h-13.729v-3.088h4.548l-3.109-10.203h3.255l3.109,10.203h2.775v-12.227h3.15Z"/>
    <path class="st2" d="M304.918,783.114h3.15v15.314h-3.15v-15.314Z"/>
    <path class="st2" d="M321.651,787.037v9.785c0,2.212-.536,3.891-1.606,5.039-1.071,1.147-2.636,1.721-4.695,1.721-.89,0-1.836-.091-2.837-.271l.021-3.046c.904.125,1.69.188,2.357.188,1.266,0,2.191-.288,2.775-.865.584-.577.876-1.506.876-2.785v-.063c-.404.543-.89.96-1.46,1.252-.571.292-1.21.438-1.919.438-1.016,0-1.892-.25-2.629-.751-.738-.501-1.297-1.161-1.68-1.982-.383-.82-.574-1.696-.574-2.629,0-1.057.25-2.041.751-2.952s1.29-1.651,2.368-2.222c1.078-.57,2.444-.855,4.1-.855h4.152ZM317.249,794.944c.389-.264.702-.622.939-1.074.236-.452.354-.936.354-1.45v-2.232h-1.085c-1.419,0-2.445.247-3.078.74-.633.494-.949,1.109-.949,1.847,0,.432.104.845.313,1.241s.511.717.908.96.858.365,1.387.365c.417,0,.821-.132,1.21-.396Z"/>
    <path class="st2" d="M340.127,794.673c.48.445,1.102.668,1.867.668v3.088c-1.28,0-2.368-.264-3.265-.793-.897-.528-1.554-1.286-1.972-2.274-.751,1.767-2.128,2.65-4.131,2.65-.807,0-1.562-.212-2.264-.637-.703-.424-1.266-1.022-1.69-1.794-.424-.772-.636-1.646-.636-2.619,0-1.21.295-2.273.887-3.192.591-.918,1.408-1.623,2.452-2.117,1.043-.494,2.218-.741,3.526-.741.501,0,.953.028,1.356.084v-.96h3.151v6.635c0,.891.24,1.559.72,2.003ZM331.291,784.304c-.348-.348-.522-.765-.522-1.252s.174-.904.522-1.252c.347-.348.765-.521,1.251-.521s.904.174,1.252.521.522.765.522,1.252-.174.904-.522,1.252-.765.521-1.252.521-.904-.174-1.251-.521ZM335.495,794.006c.507-.64.761-1.51.761-2.608v-1.419c-.459-.069-.869-.104-1.231-.104-1.126,0-2.055.275-2.785.824-.73.55-1.095,1.29-1.095,2.223,0,.653.215,1.157.646,1.513.431.354.988.531,1.669.531.848,0,1.526-.319,2.034-.959ZM335.443,784.304c-.348-.348-.521-.765-.521-1.252s.174-.904.521-1.252.765-.521,1.252-.521.904.174,1.252.521c.347.348.521.765.521,1.252s-.174.904-.521,1.252c-.348.348-.765.521-1.252.521s-.904-.174-1.252-.521Z"/>
    <path class="st2" d="M344.602,788.414h3.151v10.015h-5.759c-.473,0-.869-.153-1.189-.459-.32-.306-.479-.682-.479-1.127s.153-.807.459-1.085.709-.417,1.21-.417h2.608v-6.927ZM342.808,803.29c-.348-.348-.521-.765-.521-1.252s.174-.904.521-1.252.765-.521,1.252-.521.904.174,1.252.521.521.765.521,1.252-.174.904-.521,1.252-.765.521-1.252.521-.904-.174-1.252-.521ZM346.96,803.29c-.348-.348-.521-.765-.521-1.252s.173-.904.521-1.252c.348-.348.765-.521,1.252-.521s.904.174,1.251.521.522.765.522,1.252-.174.904-.522,1.252-.765.521-1.251.521-.904-.174-1.252-.521Z"/>
    <path class="st2" d="M357.246,795.341v3.088h-5.738v-15.314h3.15v12.227h2.587Z"/>
    <path class="st2" d="M369.035,798.429h-11.789c-.459,0-.852-.149-1.179-.448s-.49-.664-.49-1.096.164-.796.49-1.096c.327-.299.72-.448,1.179-.448h1.439c-.709-.626-1.064-1.509-1.064-2.649,0-1.127.285-2.121.855-2.984.57-.862,1.356-1.533,2.358-2.013,1.001-.48,2.114-.72,3.338-.72.654,0,1.374.083,2.16.25.786.167,1.582.425,2.389.771l-1.085,2.817c-.64-.265-1.255-.463-1.847-.595s-1.109-.198-1.554-.198c-1.001,0-1.83.25-2.483.751-.654.501-.981,1.176-.981,2.023,0,.793.285,1.416.855,1.868s1.433.678,2.587.678h4.82v3.088Z"/>
    <path class="st2" d="M383.911,795.341v3.088h-12.665v-3.088h7.407v-1.189c0-1.015-.16-1.812-.48-2.389s-.821-.994-1.502-1.252c-.682-.257-1.593-.386-2.733-.386h-1.523v-3.15h1.564c2.434,0,4.347.611,5.738,1.836,1.391,1.224,2.086,3.004,2.086,5.341v1.189h2.107Z"/>
    <path class="st2" d="M392.882,795.341v3.088c-2.211,0-3.707-.612-4.486-1.836-.5.584-1.13,1.036-1.888,1.356-.758.319-1.624.479-2.598.479-.487,0-.887-.146-1.2-.438s-.469-.66-.469-1.105.156-.813.469-1.105.713-.438,1.2-.438c.765,0,1.391-.223,1.878-.668.487-.444.73-1.112.73-2.003v-9.556h3.151v9.556c0,.793.222,1.426.667,1.898.515.516,1.363.772,2.545.772Z"/>
    <path class="st2" d="M395.49,783.114h3.151v15.314h-5.759c-.487,0-.887-.146-1.2-.438s-.469-.66-.469-1.105.156-.813.469-1.105.713-.438,1.2-.438h2.608v-12.227Z"/>
  </g>
  <rect class="st4" x="-1343.823" y="243.4" width="198.647" height="198.647" rx="-473.265" ry="-473.265"/>
  <rect class="st0" x="-1558.357" y="-442.047" width="942.857" height="300" rx="78.977" ry="78.977"/>
</svg>