<?xml version="1.0" encoding="UTF-8"?>
<svg xmlns="http://www.w3.org/2000/svg" viewBox="125 640 290 170">
  <defs>
    <style>
      .cal { fill: currentColor; }
    </style>
  </defs>
  <g>
    <!-- Main Arabic calligraphy نبضة -->
    <path class="cal" d="M387.614,687.449c12.038,12.047,14.254,31.566,4.884,45.643-6.263,9.409-20.431,10.311-28.97,4.253-6.035-4.282-8.116-10.543-9.77-17.575-12.821,10.534-26.875,16.886-42.35,20.946-19.291,5.06-46.46,9.272-65.322,1.835l-3.865,10.203c-.199.524-2.017,1.421-2.558,1.57-.72.198-1.31-2.105-1.097-2.825l3.13-10.568c-4.952-3.314-8.705-7.769-11.007-14.074-9.663,13.942-28.179,19.993-43.632,12.624-9.057-4.319-12.179-13.25-16.065-22.903-5.016,15.466-18.84,24.556-34.486,22.347-5.039-.711-8.321-5.131-8.505-9.984-.85-22.347,17.669-35.087,34.855-45.116-1.136-6.233.119-13.829,7.198-16.697l3.001,12.178c5.588-3.683,9.6-7.939,14.902-13.242.795,8.912-7.243,14.028-13.26,20.064,1.126,9.286,3.66,19.484,6.883,28.511,2.459,6.887,7.887,10.801,14.589,12.666,15.067,4.193,30.753-5.468,37.86-17.545.461-.784,2.145-1.624,2.728-1.748,3.602-.769-3.827,13.24,9.897,19.396,8.815-18.22,24.222-48.508,48.216-48.387,9.451.048,17.747,5.491,23.195,12.738,8.815,11.727,1.127,24.712-6.299,35.347,12.856-2.913,24.498-7.352,35.468-14.251,6.219-3.911,9.538-9.517,12.876-8.677,1.834.461-1.699,14.313,7.716,19.852,6.912,4.066,18.281,2.949,23.714-2.796-.814-17.476-13.711-10.187-3.927-33.784ZM168.059,705.766l-2.828-14.077c-8.102,4.991-14.952,9.454-22.202,15.144-3.462,2.717-10.099,10.847-7.583,14.819,5.184,8.182,35.511-1.459,32.613-15.886ZM314.659,712.122c-.699-6.809-5.001-11.032-10.043-14.668-23.12-16.671-43.932,13.943-52.979,32.184,22.385,6.212,46.81-3.11,63.023-17.516Z"/>
    <path class="cal" d="M192.941,682.875c-1.46,1.511,3.71,3.246,5.342,5.204.521.625-.3,2.996-.729,3.622-2.223-.435-6.972-2.661-7.417-4.89-1.279-6.399,3.79-10.676,9.115-12.681l71.598-26.963c.16,3.847-2.476,5.291-5.61,6.449-10.812,3.996-67.673,24.471-72.299,29.259Z"/>
    <polygon class="cal" points="149.597 666.038 136.584 657.31 143.106 645.604 154.845 653.539 160.411 644.66 172.817 653.309 166.626 664.617 154.789 657.295 149.597 666.038"/>
    <path class="cal" d="M279.98,668.772l16.604-9.718c-6.462-1.983-11.084-1.504-17.958-.994l4.468-8.457c7.178-2.178,14.262-1.762,21.331,1.63-4.949,12.134-12.22,17.961-24.445,17.539Z"/>
    <polygon class="cal" points="374.243 684.021 360.932 675.21 367.906 663.627 380.601 672.562 374.243 684.021"/>
    <polygon class="cal" points="247.629 693.562 234.824 684.648 241.566 673.411 254.449 682.077 247.629 693.562"/>
    <path class="cal" d="M378.766,652.062l-45.401,17.452c.139-2.383,2.258-5.42,4.857-6.379l44.911-16.576c-.251,2.485-1.835,4.529-4.367,5.502Z"/>
    <path class="cal" d="M329.87,698.668l14.644-8.562c-6.057-1.671-9.562-1.4-15.026-1.349.431-1.573,2.337-5.609,3.877-6.865,5.635-1.666,12.355-.889,18.117,1.673-4.136,10.841-9.998,14.887-21.611,15.103Z"/>
    <polygon class="cal" points="350.278 757.787 337.879 749.157 344.364 737.976 357.051 746.355 350.278 757.787"/>
    <path class="cal" d="M204.726,666.385l-4.353-10.046c-1.805-.613-4.802-1.589-5.658-2.805-.993-1.41,1.561-6.101,3.43-5.072,3.494,1.924,4.811,6.117,6.649,9.939,1.004-3.342,2.549-8.755,4.376-11.709.509-.823,3.937.001,4.166.923.277,1.111.811,4.277-.327,4.193l-3.381-.25c-2.303-.17-2.031,10.258-4.903,14.829Z"/>
    <path class="cal" d="M215.629,704.797c.578,2.175-.861,6.836-3.358,8.183-2.714,1.463-5.732-1.424-5.949-3.921-.727-8.353,1.437-16.594,6.784-22.926-.924,4.552-7.252,18.684-2.211,21.815.927.576,2.504-.924,4.733-3.151Z"/>
    <path class="cal" d="M316.802,661.848c.31.999,3.483-.067,4.441-.719-.383,1.912-1.134,4.127-1.961,5.296-.796,1.125-4.62-.068-4.911-1.571-1.293-6.666.837-13.235,4.246-18.231-.517,5.351-3.307,10.414-1.815,15.226Z"/>
    <path class="cal" d="M171.295,744.234l-.417,3.777c-.133,1.206-3.838,2.905-4.585,1.878-3.857-5.299-1.278-13.712,1.91-18.522l-1.85,12.238c-.108.715,1.009,2.68,1.586,2.937s1.4-.642,3.357-2.308Z"/>
    <path class="cal" d="M609.877,797.737c.576,3.767.213,6.25-3.377,7.774l-.144-7.574,3.521-.2Z"/>
    <rect class="cal" x="408.852" y="648.336" width="5.075" height="154.828"/>
  </g>
</svg>