<?xml version="1.0" encoding="UTF-8"?>
<svg xmlns="http://www.w3.org/2000/svg" viewBox="0 0 420 100">
  <defs>
    <linearGradient id="gold-grad" x1="0%" y1="0%" x2="100%" y2="100%">
      <stop offset="0%" stop-color="#7c461d"/>
      <stop offset="25%" stop-color="#a57029"/>
      <stop offset="50%" stop-color="#f2d379"/>
      <stop offset="75%" stop-color="#d4af37"/>
      <stop offset="100%" stop-color="#82481e"/>
    </linearGradient>
  </defs>

  <!-- Emblem: Nabda icon scaled down from original SVG -->
  <g transform="translate(5, 5) scale(0.083)">
    <!-- Gold calligraphy artwork -->
    <path fill="url(#gold-grad)" d="M767.767,504.738c-9.246-10.278-15.189-22.471-20.957-35.126-10.67,6.105-21.292,9.904-33.303,13.575,7.369,11.946,14.706,21.935,23.953,31.142,31.631,29.674,70.699,26.393,101.661-1.396l-12.849,5.403c-20.744,8.723-43.501,3.08-58.504-13.597ZM919.492,346.238l-45.46,42.881,22.095,3.832c-7.519,19.089-14.147,43.869-29.599,57.665-9.765,8.719-23.249,8.873-32.66-.002-11.265-10.624-15.8-25.574-22.052-40.332-5.771,7.43-11.201,13.851-18.059,20.953,10.128,22.427,27.74,45.594,56.578,45.884-12.107,7.067-26.025,6.04-38.486-.332-13.046-7.346-22.534-19.107-29.1-33.197l-21.118,17.29c7.569,12.465,16.855,23.932,28.908,32.106,29.317,21.047,62.84,7.699,83.712-18.071,8.855-10.934,16.339-22.902,21.517-36.126l16.079-41.061,19.345,8.932-11.701-60.423ZM729.146,393.317l27.918,59.049c8.175-5.936,14.864-11.236,21.509-18.025l-25.666-68.741-23.76,27.718ZM764.167,353.755l26.011,68.908,18.637-22.786-20.064-68.192c-9.452,7.531-17.131,14.442-24.584,22.07ZM580.032,588.96c10.98-13.98,19.25-28.92,25.99-45.59,21.9-54.16,30.8-105.98,49.29-161.25,7.89-23.6,18.69-51.83,37.23-68.19,12.97-11.43,30.3-11.2,43.76-.23,10.84,8.84,18.31,20.85,24.81,33.16l25.46-23.22c-7.83-20.9-15.61-40.6-32.46-54.93-14.75-12.54-34.51-14.66-51.59-5.26-21.75,11.96-33.99,34.32-45.44,54.92-28.01,15.15-44.59,36.55-58.11,64.76l-17.24,35.98c-8.79,18.34-29.84,44.71-51.88,45.21-9.23.22-16.78-4.72-21.42-12.12l-13.39-21.29c-4.03-6.42-11.34-9.57-18.13-9.62-17.46-.11-25.98,20.46-28.09,35.45l-7.24,51.43c-1.95,13.83-3.9,27-6.69,40.62l-17.25-152.32-8.25-74.36c-1.36-12.27-.98-33.8-15.12-32.44-3.83.38-9.07,4.49-9.72,9.79l-10.97,89.7-8.96,74.54c-1.52,12.67-3.22,24.09-5.91,37.22l-7.73-33.84-14.42-62.16c-2.27-9.75-7.4-24.93-18.3-25.8-13.81-1.12-18.89,15.15-21.86,26.35-3.14,11.81-5.75,22.96-9.88,34.5-5.07,14.21-17.17,25.4-33.1,25.45l-96.4.31c-4.98.02-8.36,3.64-8.21,8.18.11,3.67,3.61,7.26,8.19,7.27l93.35.22c20.1.05,37.74-9.52,46.88-27.58,9.87-19.51,10.66-35.39,18.76-57.18,3.12,4.89,4.68,9.05,5.89,14.37l21,92.54c1.33,5.86,3.76,11.13,7.97,15.06,4.84,4.52,11.82,4.68,16.94.24,4.02-3.47,7.07-9.17,7.79-14.78l5.54-43.49,14.36-117.7,11.79,101.98,15.44,140.28c.68,6.27,7.78,9.79,11.79,9.73,4.89-.07,10.96-3.85,11.81-9.26l5.55-35.52,13.51-90.52c5.72,10.9,7.89,21.34,10.97,32.49,7.18,26.03,14.32,51.38,24.77,76.25,5.01,11.93,11.34,22.66,19.49,32.35,24.39,29.03,62.73,14.89,85.66-7.36,29.61-28.75,45.48-70.32,57.67-109.35l17.95-57.43c11.28,16.51,18.9,32.07,26.88,49.37,12.56-3.07,23.43-7.37,34.76-13.33l-23.93-53.73-13.49,19.21c.53-10.14,5.2-18.98,8.76-28.07-5.11-10.11-11.56-18.96-18.93-27.4,1.12-4.57,2.78-9.03,5.27-13.26,11.28,6.88,18.59,16.69,24.48,28.27,7.92-10.54,15.55-19.8,24.85-29.4-5.51-13.23-13.55-38.14-26.26-44.57-12.04-6.1-28.52,15.59-34.07,24.99-9.84,16.64-17.24,33.79-22.54,52.48l-17.73,62.57c-5.73,20.22-10.76,39.57-17.74,59.34-13.31,37.67-40.1,91.41-83.3,100.29,12.34-6.01,22.6-13.46,31.14-24.32ZM520.912,517.01c-9.16-17.32-17.05-33.87-23.87-53.22,15.23,18.06,39.21,23.53,57.76,8.63l12.15-9.74c-2.28,10.13-31.15,82.49-46.04,54.33ZM564.562,544.06c-7.01,3.57-14.94,5.66-22.18-.28,18.14-6.41,31.99-34.72,37.64-51.38l17.04-50.29c9.35-27.6,22.8-65.49,44.2-86.09l-18.68,56.2c-11.71,35.22-28.42,112.8-58.02,131.84Z"/>
    <!-- Arabic calligraphy (white) -->
    <path fill="#1a202c" d="M387.614,687.449c12.038,12.047,14.254,31.566,4.884,45.643-6.263,9.409-20.431,10.311-28.97,4.253-6.035-4.282-8.116-10.543-9.77-17.575-12.821,10.534-26.875,16.886-42.35,20.946-19.291,5.06-46.46,9.272-65.322,1.835l-3.865,10.203c-.199.524-2.017,1.421-2.558,1.57-.72.198-1.31-2.105-1.097-2.825l3.13-10.568c-4.952-3.314-8.705-7.769-11.007-14.074-9.663,13.942-28.179,19.993-43.632,12.624-9.057-4.319-12.179-13.25-16.065-22.903-5.016,15.466-18.84,24.556-34.486,22.347-5.039-.711-8.321-5.131-8.505-9.984-.85-22.347,17.669-35.087,34.855-45.116-1.136-6.233.119-13.829,7.198-16.697l3.001,12.178c5.588-3.683,9.6-7.939,14.902-13.242.795,8.912-7.243,14.028-13.26,20.064,1.126,9.286,3.66,19.484,6.883,28.511,2.459,6.887,7.887,10.801,14.589,12.666,15.067,4.193,30.753-5.468,37.86-17.545.461-.784,2.145-1.624,2.728-1.748,3.602-.769-3.827,13.24,9.897,19.396,8.815-18.22,24.222-48.508,48.216-48.387,9.451.048,17.747,5.491,23.195,12.738,8.815,11.727,1.127,24.712-6.299,35.347,12.856-2.913,24.498-7.352,35.468-14.251,6.219-3.911,9.538-9.517,12.876-8.677,1.834.461-1.699,14.313,7.716,19.852,6.912,4.066,18.281,2.949,23.714-2.796-.814-17.476-13.711-10.187-3.927-33.784Z"/>
    <path fill="#1a202c" d="M192.941,682.875c-1.46,1.511,3.71,3.246,5.342,5.204.521.625-.3,2.996-.729,3.622-2.223-.435-6.972-2.661-7.417-4.89-1.279-6.399,3.79-10.676,9.115-12.681l71.598-26.963c.16,3.847-2.476,5.291-5.61,6.449-10.812,3.996-67.673,24.471-72.299,29.259Z"/>
    <polygon fill="#1a202c" points="149.597 666.038 136.584 657.31 143.106 645.604 154.845 653.539 160.411 644.66 172.817 653.309 166.626 664.617 154.789 657.295 149.597 666.038"/>
    <path fill="#1a202c" d="M279.98,668.772l16.604-9.718c-6.462-1.983-11.084-1.504-17.958-.994l4.468-8.457c7.178-2.178,14.262-1.762,21.331,1.63-4.949,12.134-12.22,17.961-24.445,17.539Z"/>
    <polygon fill="#1a202c" points="374.243 684.021 360.932 675.21 367.906 663.627 380.601 672.562 374.243 684.021"/>
    <polygon fill="#1a202c" points="247.629 693.562 234.824 684.648 241.566 673.411 254.449 682.077 247.629 693.562"/>
    <path fill="#1a202c" d="M378.766,652.062l-45.401,17.452c.139-2.383,2.258-5.42,4.857-6.379l44.911-16.576c-.251,2.485-1.835,4.529-4.367,5.502Z"/>
    <path fill="#1a202c" d="M329.87,698.668l14.644-8.562c-6.057-1.671-9.562-1.4-15.026-1.349.431-1.573,2.337-5.609,3.877-6.865,5.635-1.666,12.355-.889,18.117,1.673-4.136,10.841-9.998,14.887-21.611,15.103Z"/>
    <polygon fill="#1a202c" points="350.278 757.787 337.879 749.157 344.364 737.976 357.051 746.355 350.278 757.787"/>
    <rect fill="#1a202c" x="408.852" y="648.336" width="5.075" height="154.828"/>
    <path fill="#1a202c" d="M215.629,704.797c.578,2.175-.861,6.836-3.358,8.183-2.714,1.463-5.732-1.424-5.949-3.921-.727-8.353,1.437-16.594,6.784-22.926-.924,4.552-7.252,18.684-2.211,21.815.927.576,2.504-.924,4.733-3.151Z"/>
    <path fill="#1a202c" d="M316.802,661.848c.31.999,3.483-.067,4.441-.719-.383,1.912-1.134,4.127-1.961,5.296-.796,1.125-4.62-.068-4.911-1.571-1.293-6.666.837-13.235,4.246-18.231-.517,5.351-3.307,10.414-1.815,15.226Z"/>
    <path fill="#1a202c" d="M171.295,744.234l-.417,3.777c-.133,1.206-3.838,2.905-4.585,1.878-3.857-5.299-1.278-13.712,1.91-18.522l-1.85,12.238c-.108.715,1.009,2.68,1.586,2.937s1.4-.642,3.357-2.308Z"/>
    <path fill="#1a202c" d="M204.726,666.385l-4.353-10.046c-1.805-.613-4.802-1.589-5.658-2.805-.993-1.41,1.561-6.101,3.43-5.072,3.494,1.924,4.811,6.117,6.649,9.939,1.004-3.342,2.549-8.755,4.376-11.709.509-.823,3.937.001,4.166.923.277,1.111.811,4.277-.327,4.193l-3.381-.25c-2.303-.17-2.031,10.258-4.903,14.829Z"/>
  </g>

  <!-- Vertical gold divider -->
  <line x1="115" y1="15" x2="115" y2="85" stroke="url(#gold-grad)" stroke-width="1.5" opacity="0.6"/>

  <!-- Arabic name: نبضة -->
  <text x="130" y="42" font-family="'Cairo', 'Segoe UI', sans-serif" font-size="28" font-weight="700" fill="#1a202c" direction="rtl" text-anchor="start">نبضة</text>

  <!-- English name: NABDA -->
  <text x="130" y="68" font-family="'Inter', 'Segoe UI', sans-serif" font-size="22" font-weight="800" fill="#1a202c" letter-spacing="4">NABDA</text>

  <!-- Tagline -->
  <text x="130" y="86" font-family="'Inter', 'Segoe UI', sans-serif" font-size="7.5" font-weight="500" fill="url(#gold-grad)" letter-spacing="2.5" text-transform="uppercase">ADVERTISING, PUBLICITY &amp; MARKETING</text>
</svg>
